:FULLY-SPECIFIED
:FORCE-ALL-JOINTS-BE-3DOF
:DEGREES
985
root 1.10248 15.1604 32.5031 5.39006 -4.71114 4.09036
lfemur 8.75 1.80762 5.21215
ltibia 3.65764e-014 -0 0
lfoot -30.0156 -11.7531 -0.000910567
ltoes -33.792 0 0
rfemur -32.8775 -15.8987 -6.14286
rtibia 50.6724 -0 0
rfoot -22.9 5.11203 -0.000660646
rtoes -42.4899 0 0
lowerback -1.443 -0.428821 0.593901
upperback -0.803003 -0.581289 -5.92752
thorax -0.0861211 -0.310796 -6.49242
lowerneck -6.62397 1.20969 5.84738
upperneck 1.05679 1.0331 3.4951
head 1.45851 0.621206 0.140888
lclavicle 9.34288e-015 3.18055e-014 0
lhumerus -58.57 -45.3251 114.98
lradius 55.0402 -0 0
lwrist 24.8502 0 0
lhand 37.7577 24.0382 -0.00454505
lfingers 7.12502 -0 0
lthumb 60.5086 37.2486 -0.00898311
rclavicle 9.34288e-015 3.18055e-014 0
rhumerus 4.10495 -24.8273 0.0759225
rradius 28.0558 -0 0
rwrist -11.2927 0 0
rhand -31.4589 -44.9755 0.00449766
rfingers 7.12502 -0 0
rthumb -4.72624 -74.9027 0.00432428
986
root 1.10619 15.1604 32.4967 5.35703 -4.67623 4.08101
lfemur 8.74106 1.76383 5.21531
ltibia 3.65764e-014 -0 0
lfoot -30.0324 -11.7193 -0.000831387
ltoes -33.8191 0 0
rfemur -32.8268 -15.8768 -6.15204
rtibia 50.6357 -0 0
rfoot -22.8927 5.05545 -0.000603198
rtoes -42.5361 0 0
lowerback -1.43755 -0.416744 0.593717
upperback -0.789223 -0.564467 -5.91328
thorax -0.0727483 -0.301757 -6.47694
lowerneck -6.64966 1.20592 5.84997
upperneck 1.08469 1.02474 3.48836
head 1.472 0.618133 0.138327
lclavicle 9.34288e-015 3.18055e-014 0
lhumerus -58.5554 -45.3653 115.012
lradius 55.0446 -0 0
lwrist 24.9008 0 0
lhand 37.6949 24.0833 -0.00414982
lfingers 7.12502 -0 0
lthumb 60.4555 37.3539 -0.00820193
rclavicle 9.34288e-015 3.18055e-014 0
rhumerus 4.06002 -24.769 0.030617
rradius 28.0392 -0 0
rwrist -11.2614 0 0
rhand -31.4355 -44.8561 0.00410653
rfingers 7.12502 -0 0
rthumb -4.70361 -74.7838 0.00394823
987
root 1.10991 15.1603 32.4904 5.324 -4.64132 4.07164
lfemur 8.73212 1.72004 5.21848
ltibia 3.65764e-014 -0 0
lfoot -30.0492 -11.6855 -0.000742309
ltoes -33.8462 0 0
rfemur -32.7761 -15.8548 -6.16119
rtibia 50.5991 -0 0
rfoot -22.8854 4.99886 -0.000538569
rtoes -42.5823 0 0
lowerback -1.43211 -0.404667 0.593535
upperback -0.775439 -0.547648 -5.89903
thorax -0.0593731 -0.292721 -6.46146
lowerneck -6.67534 1.20216 5.85257
upperneck 1.11259 1.01638 3.48162
head 1.48549 0.615061 0.135766
lclavicle 9.34288e-015 3.18055e-014 0
lhumerus -58.5409 -45.4056 115.045
lradius 55.049 -0 0
lwrist 24.9515 0 0
lhand 37.632 24.1283 -0.00370518
lfingers 7.12502 -0 0
lthumb 60.4024 37.4592 -0.0073231
rclavicle 9.34288e-015 3.18055e-014 0
rhumerus 4.01505 -24.7107 -0.0147177
rradius 28.0225 -0 0
rwrist -11.23 0 0
rhand -31.412 -44.7366 0.00366652
rfingers 7.12502 -0 0
rthumb -4.68097 -74.6648 0.00352518
988
root 1.11363 15.1603 32.4841 5.29097 -4.60642 4.06225
lfemur 8.72317 1.67625 5.22165
ltibia 3.65764e-014 -0 0
lfoot -30.0659 -11.6518 -0.000643334
ltoes -33.8732 0 0
rfemur -32.7254 -15.8328 -6.17032
rtibia 50.5624 -0 0
rfoot -22.8782 4.94228 -0.000466759
rtoes -42.6285 0 0
lowerback -1.42667 -0.39259 0.593354
upperback -0.76165 -0.530832 -5.88478
thorax -0.0459954 -0.283689 -6.44597
lowerneck -6.70102 1.19839 5.85517
upperneck 1.14049 1.00802 3.47488
head 1.49898 0.611989 0.133204
lclavicle 9.34288e-015 3.18055e-014 0
lhumerus -58.5264 -45.4458 115.077
lradius 55.0535 -0 0
lwrist 25.0021 0 0
lhand 37.5692 24.1734 -0.00321115
lfingers 7.12502 -0 0
lthumb 60.3492 37.5645 -0.00634664
rclavicle 9.34288e-015 3.18055e-014 0
rhumerus 3.97006 -24.6524 -0.0600815
rradius 28.0058 -0 0
rwrist -11.1986 0 0
rhand -31.3886 -44.6171 0.00317763
rfingers 7.12502 -0 0
rthumb -4.65834 -74.5458 0.00305514
989
root 1.11734 15.1603 32.4778 5.25794 -4.57153 4.05284
lfemur 8.71422 1.63247 5.22483
ltibia 3.65764e-014 -0 0
lfoot -30.0827 -11.618 -0.000534462
ltoes -33.9003 0 0
rfemur -32.6747 -15.8108 -6.17943
rtibia 50.5257 -0 0
rfoot -22.8709 4.88569 -0.000387768
rtoes -42.6747 0 0
lowerback -1.42123 -0.380513 0.593174
upperback -0.747857 -0.51402 -5.87052
thorax -0.0326153 -0.27466 -6.43048
lowerneck -6.72671 1.19463 5.85777
upperneck 1.16839 0.999674 3.46813
head 1.51246 0.608918 0.130641
lclavicle 9.34288e-015 3.18055e-014 0
lhumerus -58.5119 -45.4861 115.11
lradius 55.0579 -0 0
lwrist 25.0528 0 0
lhand 37.5064 24.2185 -0.00266772
lfingers 7.12502 -0 0
lthumb 60.2961 37.6698 -0.00527255
rclavicle 9.34288e-015 3.18055e-014 0
rhumerus 3.92504 -24.5941 -0.105474
rradius 27.9892 -0 0
rwrist -11.1672 0 0
rhand -31.3651 -44.4976 0.00263985
rfingers 7.12502 -0 0
rthumb -4.6357 -74.4269 0.00253809
990
root 1.12106 15.1603 32.4715 5.2249 -4.53664 4.04341
lfemur 8.70527 1.58868 5.22802
ltibia 3.65764e-014 -0 0
lfoot -30.0995 -11.5842 -0.000415692
ltoes -33.9274 0 0
rfemur -32.624 -15.7888 -6.18851
rtibia 50.4891 -0 0
rfoot -22.8636 4.82911 -0.000301597
rtoes -42.7208 0 0
lowerback -1.41579 -0.368436 0.592995
upperback -0.73406 -0.497211 -5.85626
thorax -0.0192328 -0.265635 -6.41499
lowerneck -6.75239 1.19087 5.86038
upperneck 1.19629 0.991327 3.46138
head 1.52595 0.605848 0.128077
lclavicle 9.34288e-015 3.18055e-014 0
lhumerus -58.4974 -45.5264 115.142
lradius 55.0623 -0 0
lwrist 25.1034 0 0
lhand 37.4436 24.2635 -0.00207488
lfingers 7.12502 -0 0
lthumb 60.243 37.7751 -0.00410084
rclavicle 9.34288e-015 3.18055e-014 0
rhumerus 3.87999 -24.5359 -0.150897
rradius 27.9725 -0 0
rwrist -11.1358 0 0
rhand -31.3417 -44.3781 0.0020532
rfingers 7.12502 -0 0
rthumb -4.61307 -74.3079 0.00197405
991
root 1.12478 15.1602 32.4652 5.19185 -4.50175 4.03396
lfemur 8.69632 1.54489 5.23122
ltibia 3.65764e-014 -0 0
lfoot -30.1163 -11.5504 -0.000287025
ltoes -33.9545 0 0
rfemur -32.5734 -15.7668 -6.19758
rtibia 50.4524 -0 0
rfoot -22.8563 4.77252 -0.000208245
rtoes -42.767 0 0
lowerback -1.41035 -0.356358 0.592818
upperback -0.720259 -0.480405 -5.842
thorax -0.00584782 -0.256614 -6.39949
lowerneck -6.77807 1.18711 5.86298
upperneck 1.22419 0.982982 3.45462
head 1.53944 0.602778 0.125513
lclavicle 9.34288e-015 3.18055e-014 0
lhumerus -58.4829 -45.5666 115.175
lradius 55.0667 -0 0
lwrist 25.1541 0 0
lhand 37.3808 24.3086 -0.00143265
lfingers 7.12502 -0 0
lthumb 60.1898 37.8803 -0.00283151
rclavicle 9.34288e-015 3.18055e-014 0
rhumerus 3.8349 -24.4777 -0.196348
rradius 27.9558 -0 0
rwrist -11.1044 0 0
rhand -31.3183 -44.2587 0.00141767
rfingers 7.12502 -0 0
rthumb -4.59044 -74.1889 0.00136302
992
root 1.12849 15.1602 32.4589 5.1588 -4.46687 4.02449
lfemur 8.68737 1.50111 5.23442
ltibia 3.65764e-014 -0 0
lfoot -30.1331 -11.5167 -0.000148461
ltoes -33.9815 0 0
rfemur -32.5227 -15.7448 -6.20663
rtibia 50.4158 -0 0
rfoot -22.8491 4.71594 -0.000107713
rtoes -42.8132 0 0
lowerback -1.40491 -0.344281 0.592641
upperback -0.706454 -0.463604 -5.82773
thorax 0.00753958 -0.247596 -6.384
lowerneck -6.80376 1.18335 5.86559
upperneck 1.2521 0.974642 3.44786
head 1.55293 0.599709 0.122948
lclavicle 9.34288e-015 3.18055e-014 0
lhumerus -58.4685 -45.6069 115.207
lradius 55.0712 -0 0
lwrist 25.2047 0 0
lhand 37.318 24.3536 -0.000741023
lfingers 7.12502 -0 0
lthumb 60.1367 37.9856 -0.00146456
rclavicle 9.34288e-015 3.18055e-014 0
rhumerus 3.78979 -24.4195 -0.241829
rradius 27.9392 -0 0
rwrist -11.073 0 0
rhand -31.2948 -44.1392 0.000733271
rfingers 7.12502 -0 0
rthumb -4.56781 -74.07 0.000705005
